<svg xmlns="http://www.w3.org/2000/svg" version="1.1" xmlns:xlink="http://www.w3.org/1999/xlink" width="1500" height="1500" viewBox="0 0 1500 1500"><rect width="1500" height="1500" x="0" y="0" id="background" stroke="transparent" fill="#ffffff"></rect><svg xml:space="preserve" width="1000" height="1000" data-version="2" data-id="lg_cCr7YL2ZfU0uEAOwvq" viewBox="0 0 809 480" x="250" y="250"><rect width="100%" height="100%" fill="transparent"></rect><path fill="#ffffff" d="M800.974 437.602H8.026V161.958h792.948z"></path><path fill="#8a8a8a" d="M236.106 82.075c-.015 27.02-24.869 51.587-52.187 51.587s-52.17-24.567-52.186-51.587c-.015-27.041 24.854-51.646 52.186-51.646 27.34 0 52.202 24.612 52.187 51.646m-52.209 72.088c-21.985 0-38.374 14.677-45.632 35.184-23.857 61.885-47.625 123.784-71.64 185.662a47.37 46.853 0 0 0-2.943 16.5A47.108 46.593 0 0 0 110.79 438.1h146.214a47.108 46.593 0 0 0 47.108-46.593c0-5.793-.989-11.387-2.944-16.5-24.007-61.825-47.782-123.71-71.639-185.661-7.258-20.507-23.632-35.184-45.632-35.184M678.12 82.075c-.015 27.02-24.868 51.587-52.186 51.587s-52.171-24.567-52.186-51.587c-.015-27.041 24.853-51.646 52.186-51.646 27.34 0 52.201 24.612 52.186 51.646m-79.1 355.988c-21.984 0-38.373-14.676-45.632-35.184l-36.306-185.662a47.37 46.853 0 0 1-2.944-16.499 47.108 46.593 0 0 1 47.108-46.593h129.473a47.108 46.593 0 0 1 47.108 46.593c0 5.794-.989 11.387-2.944 16.5l-36.306 185.661c-7.259 20.508-23.633 35.184-45.632 35.184M400.897 4.528c-15.73 1.097-29.31 15.462-29.453 31.065v401.404c.083 15.602 13.685 29.93 29.453 31.064 17.213 1.2 33.782-13.987 33.872-31.064V35.593c-.098-17.07-16.659-32.257-33.872-31.065"></path></svg></svg>